STARTFONT 2.1
FONT -Monotype-Monotype Corsiva-Regular-R-Normal--10-100-75-75-P-48-iso8859-2
SIZE 10 75 75
FONTBOUNDINGBOX 12 13 -2 -3

STARTPROPERTIES 24
FOUNDRY "Monotype"
FAMILY_NAME "Monotype Corsiva"
WEIGHT_NAME "Regular"
SLANT "R"
SETWIDTH_NAME "Normal"
ADD_STYLE_NAME ""
PIXEL_SIZE 10
POINT_SIZE 100
RESOLUTION_X 75
RESOLUTION_Y 75
SPACING "P"
AVERAGE_WIDTH 48
CHARSET_REGISTRY "iso8859"
CHARSET_ENCODING "2"
FACE_NAME "Monotype Corsiva ISO Latin2"
_DEC_DEVICE_FONTNAMES "PS=monotypecorsiva-lat2"
COPYRIGHT "Copyright (c) 1994 Monotype Typography Ltd."
CAP_HEIGHT 8
X_HEIGHT 5
WEIGHT 10
QUAD_WIDTH 5
DEFAULT_CHAR 160
FONT_DESCENT 3
FONT_ASCENT 10
ENDPROPERTIES

CHARS 191

STARTCHAR space
ENCODING 32
SWIDTH 220 0
DWIDTH 2 0
BBX 0 0 0 0
BITMAP
ENDCHAR

STARTCHAR exclam
ENCODING 33
SWIDTH 280 0
DWIDTH 3 0
BBX 2 7 1 0
BITMAP
40
40
40
80
80
00
80
ENDCHAR

STARTCHAR quotedbl
ENCODING 34
SWIDTH 220 0
DWIDTH 2 0
BBX 3 3 0 4
BITMAP
A0
A0
A0
ENDCHAR

STARTCHAR numbersign
ENCODING 35
SWIDTH 680 0
DWIDTH 7 0
BBX 7 7 1 0
BITMAP
14
14
7E
28
FC
50
50
ENDCHAR

STARTCHAR dollar
ENCODING 36
SWIDTH 440 0
DWIDTH 4 0
BBX 5 9 0 -1
BITMAP
10
38
50
50
20
50
50
E0
40
ENDCHAR

STARTCHAR percent
ENCODING 37
SWIDTH 680 0
DWIDTH 7 0
BBX 6 7 1 0
BITMAP
68
A8
D0
10
2C
54
58
ENDCHAR

STARTCHAR ampersand
ENCODING 38
SWIDTH 780 0
DWIDTH 8 0
BBX 8 8 0 -1
BITMAP
01
0E
12
44
B4
88
79
06
ENDCHAR

STARTCHAR quoteright
ENCODING 39
SWIDTH 240 0
DWIDTH 2 0
BBX 2 2 0 5
BITMAP
40
80
ENDCHAR

STARTCHAR parenleft
ENCODING 40
SWIDTH 260 0
DWIDTH 3 0
BBX 4 10 0 -3
BITMAP
10
20
40
40
80
80
80
80
80
40
ENDCHAR

STARTCHAR parenright
ENCODING 41
SWIDTH 220 0
DWIDTH 3 0
BBX 4 10 0 -3
BITMAP
20
10
10
10
10
10
20
20
40
80
ENDCHAR

STARTCHAR asterisk
ENCODING 42
SWIDTH 420 0
DWIDTH 4 0
BBX 3 3 1 4
BITMAP
40
A0
40
ENDCHAR

STARTCHAR plus
ENCODING 43
SWIDTH 520 0
DWIDTH 5 0
BBX 5 5 0 0
BITMAP
20
20
F8
20
20
ENDCHAR

STARTCHAR comma
ENCODING 44
SWIDTH 220 0
DWIDTH 2 0
BBX 2 2 0 -1
BITMAP
40
80
ENDCHAR

STARTCHAR minus
ENCODING 45
SWIDTH 600 0
DWIDTH 6 0
BBX 4 1 1 2
BITMAP
F0
ENDCHAR

STARTCHAR period
ENCODING 46
SWIDTH 220 0
DWIDTH 2 0
BBX 1 1 1 0
BITMAP
80
ENDCHAR

STARTCHAR slash
ENCODING 47
SWIDTH 340 0
DWIDTH 3 0
BBX 6 10 -1 -3
BITMAP
04
08
08
10
10
20
20
40
40
80
ENDCHAR

STARTCHAR zero
ENCODING 48
SWIDTH 440 0
DWIDTH 4 0
BBX 4 7 0 0
BITMAP
20
50
90
90
90
A0
40
ENDCHAR

STARTCHAR one
ENCODING 49
SWIDTH 440 0
DWIDTH 4 0
BBX 3 7 1 0
BITMAP
20
60
20
40
40
40
E0
ENDCHAR

STARTCHAR two
ENCODING 50
SWIDTH 440 0
DWIDTH 4 0
BBX 4 7 0 0
BITMAP
20
50
10
10
20
40
F0
ENDCHAR

STARTCHAR three
ENCODING 51
SWIDTH 440 0
DWIDTH 4 0
BBX 4 7 0 0
BITMAP
60
10
10
60
10
20
C0
ENDCHAR

STARTCHAR four
ENCODING 52
SWIDTH 440 0
DWIDTH 4 0
BBX 4 7 0 0
BITMAP
10
30
50
A0
F0
20
20
ENDCHAR

STARTCHAR five
ENCODING 53
SWIDTH 440 0
DWIDTH 4 0
BBX 4 7 0 0
BITMAP
30
40
60
10
10
20
C0
ENDCHAR

STARTCHAR six
ENCODING 54
SWIDTH 440 0
DWIDTH 4 0
BBX 5 7 0 0
BITMAP
38
40
E0
90
90
90
60
ENDCHAR

STARTCHAR seven
ENCODING 55
SWIDTH 440 0
DWIDTH 4 0
BBX 5 7 0 0
BITMAP
78
08
10
20
40
80
80
ENDCHAR

STARTCHAR eight
ENCODING 56
SWIDTH 440 0
DWIDTH 4 0
BBX 5 7 0 0
BITMAP
30
48
30
60
90
90
60
ENDCHAR

STARTCHAR nine
ENCODING 57
SWIDTH 440 0
DWIDTH 4 0
BBX 5 7 0 0
BITMAP
30
48
48
48
38
10
E0
ENDCHAR

STARTCHAR colon
ENCODING 58
SWIDTH 260 0
DWIDTH 3 0
BBX 2 4 1 0
BITMAP
40
00
00
80
ENDCHAR

STARTCHAR semicolon
ENCODING 59
SWIDTH 240 0
DWIDTH 2 0
BBX 3 5 0 -1
BITMAP
20
00
00
40
80
ENDCHAR

STARTCHAR less
ENCODING 60
SWIDTH 520 0
DWIDTH 5 0
BBX 4 5 1 0
BITMAP
10
60
80
60
10
ENDCHAR

STARTCHAR equal
ENCODING 61
SWIDTH 520 0
DWIDTH 5 0
BBX 5 3 0 1
BITMAP
F8
00
F8
ENDCHAR

STARTCHAR greater
ENCODING 62
SWIDTH 520 0
DWIDTH 5 0
BBX 4 5 1 0
BITMAP
80
60
10
60
80
ENDCHAR

STARTCHAR question
ENCODING 63
SWIDTH 380 0
DWIDTH 4 0
BBX 4 7 0 0
BITMAP
60
10
10
60
40
00
80
ENDCHAR

STARTCHAR at
ENCODING 64
SWIDTH 700 0
DWIDTH 7 0
BBX 7 8 0 -1
BITMAP
38
44
9A
AA
AA
B4
42
3C
ENDCHAR

STARTCHAR A
ENCODING 65
SWIDTH 620 0
DWIDTH 6 0
BBX 7 9 -1 -2
BITMAP
0E
12
06
0A
1C
14
26
20
C0
ENDCHAR

STARTCHAR B
ENCODING 66
SWIDTH 600 0
DWIDTH 6 0
BBX 6 7 0 0
BITMAP
38
44
54
98
A4
24
78
ENDCHAR

STARTCHAR C
ENCODING 67
SWIDTH 520 0
DWIDTH 5 0
BBX 5 8 0 -1
BITMAP
38
48
40
80
80
80
90
60
ENDCHAR

STARTCHAR D
ENCODING 68
SWIDTH 700 0
DWIDTH 7 0
BBX 7 7 0 0
BITMAP
3C
42
52
92
A2
24
78
ENDCHAR

STARTCHAR E
ENCODING 69
SWIDTH 620 0
DWIDTH 6 0
BBX 6 7 0 0
BITMAP
7C
94
90
58
20
24
78
ENDCHAR

STARTCHAR F
ENCODING 70
SWIDTH 580 0
DWIDTH 6 0
BBX 6 7 0 0
BITMAP
7C
94
90
58
20
20
70
ENDCHAR

STARTCHAR G
ENCODING 71
SWIDTH 620 0
DWIDTH 6 0
BBX 6 10 0 -3
BITMAP
3C
44
80
80
9C
88
78
10
10
60
ENDCHAR

STARTCHAR H
ENCODING 72
SWIDTH 680 0
DWIDTH 7 0
BBX 8 7 0 0
BITMAP
73
94
24
3C
48
48
8C
ENDCHAR

STARTCHAR I
ENCODING 73
SWIDTH 380 0
DWIDTH 4 0
BBX 4 7 0 0
BITMAP
70
20
20
20
40
40
E0
ENDCHAR

STARTCHAR J
ENCODING 74
SWIDTH 400 0
DWIDTH 4 0
BBX 5 9 -1 -2
BITMAP
38
48
08
10
10
10
20
20
C0
ENDCHAR

STARTCHAR K
ENCODING 75
SWIDTH 660 0
DWIDTH 7 0
BBX 7 9 0 -2
BITMAP
76
94
28
30
50
48
E8
08
06
ENDCHAR

STARTCHAR L
ENCODING 76
SWIDTH 580 0
DWIDTH 6 0
BBX 6 7 0 0
BITMAP
18
24
20
20
40
44
F8
ENDCHAR

STARTCHAR M
ENCODING 77
SWIDTH 840 0
DWIDTH 8 0
BBX 8 7 0 0
BITMAP
71
93
95
29
2A
2A
CB
ENDCHAR

STARTCHAR N
ENCODING 78
SWIDTH 700 0
DWIDTH 7 0
BBX 8 7 0 0
BITMAP
71
92
92
2A
2A
24
C4
ENDCHAR

STARTCHAR O
ENCODING 79
SWIDTH 600 0
DWIDTH 6 0
BBX 5 7 1 0
BITMAP
30
48
88
88
88
90
60
ENDCHAR

STARTCHAR P
ENCODING 80
SWIDTH 540 0
DWIDTH 5 0
BBX 5 7 0 0
BITMAP
70
88
A8
B0
60
40
E0
ENDCHAR

STARTCHAR Q
ENCODING 81
SWIDTH 600 0
DWIDTH 6 0
BBX 6 10 1 -3
BITMAP
30
48
88
88
88
90
60
40
24
18
ENDCHAR

STARTCHAR R
ENCODING 82
SWIDTH 600 0
DWIDTH 6 0
BBX 8 9 0 -2
BITMAP
78
84
A4
B8
48
48
E4
05
02
ENDCHAR

STARTCHAR S
ENCODING 83
SWIDTH 460 0
DWIDTH 5 0
BBX 6 8 0 -1
BITMAP
18
24
20
10
08
08
88
70
ENDCHAR

STARTCHAR T
ENCODING 84
SWIDTH 500 0
DWIDTH 5 0
BBX 7 7 0 0
BITMAP
7E
90
90
10
20
20
70
ENDCHAR

STARTCHAR U
ENCODING 85
SWIDTH 740 0
DWIDTH 7 0
BBX 7 7 0 0
BITMAP
62
A2
A2
44
44
48
30
ENDCHAR

STARTCHAR V
ENCODING 86
SWIDTH 640 0
DWIDTH 6 0
BBX 6 7 0 0
BITMAP
64
A4
A4
48
50
60
40
ENDCHAR

STARTCHAR W
ENCODING 87
SWIDTH 880 0
DWIDTH 9 0
BBX 10 7 0 0
BITMAP
6240
A240
A480
2480
2B00
3200
2200
ENDCHAR

STARTCHAR X
ENCODING 88
SWIDTH 560 0
DWIDTH 6 0
BBX 8 7 0 0
BITMAP
33
14
08
08
18
28
CC
ENDCHAR

STARTCHAR Y
ENCODING 89
SWIDTH 560 0
DWIDTH 6 0
BBX 7 7 0 0
BITMAP
62
94
98
10
20
20
70
ENDCHAR

STARTCHAR Z
ENCODING 90
SWIDTH 620 0
DWIDTH 6 0
BBX 7 7 0 0
BITMAP
3E
44
08
10
20
44
F8
ENDCHAR

STARTCHAR bracketleft
ENCODING 91
SWIDTH 240 0
DWIDTH 2 0
BBX 3 10 0 -3
BITMAP
60
40
40
40
40
80
80
80
80
C0
ENDCHAR

STARTCHAR backslash
ENCODING 92
SWIDTH 480 0
DWIDTH 5 0
BBX 6 10 0 -3
BITMAP
80
40
40
20
20
10
10
08
08
04
ENDCHAR

STARTCHAR bracketright
ENCODING 93
SWIDTH 320 0
DWIDTH 3 0
BBX 3 10 0 -3
BITMAP
60
20
20
20
20
40
40
40
40
C0
ENDCHAR

STARTCHAR asciicircum
ENCODING 94
SWIDTH 520 0
DWIDTH 5 0
BBX 3 2 1 5
BITMAP
40
A0
ENDCHAR

STARTCHAR underscore
ENCODING 95
SWIDTH 500 0
DWIDTH 5 0
BBX 5 1 0 -2
BITMAP
F8
ENDCHAR

STARTCHAR quoteleft
ENCODING 96
SWIDTH 240 0
DWIDTH 2 0
BBX 2 2 0 5
BITMAP
40
80
ENDCHAR

STARTCHAR a
ENCODING 97
SWIDTH 420 0
DWIDTH 4 0
BBX 5 4 0 0
BITMAP
38
48
B0
D8
ENDCHAR

STARTCHAR b
ENCODING 98
SWIDTH 420 0
DWIDTH 4 0
BBX 4 7 0 0
BITMAP
30
40
40
E0
90
90
60
ENDCHAR

STARTCHAR c
ENCODING 99
SWIDTH 340 0
DWIDTH 3 0
BBX 3 4 0 0
BITMAP
60
80
80
C0
ENDCHAR

STARTCHAR d
ENCODING 100
SWIDTH 440 0
DWIDTH 4 0
BBX 6 7 0 0
BITMAP
0C
10
10
70
90
90
68
ENDCHAR

STARTCHAR e
ENCODING 101
SWIDTH 340 0
DWIDTH 3 0
BBX 3 4 0 0
BITMAP
60
A0
C0
60
ENDCHAR

STARTCHAR f
ENCODING 102
SWIDTH 320 0
DWIDTH 3 0
BBX 6 10 -2 -3
BITMAP
0C
10
10
38
10
10
20
20
20
C0
ENDCHAR

STARTCHAR g
ENCODING 103
SWIDTH 400 0
DWIDTH 4 0
BBX 4 7 0 -3
BITMAP
30
50
90
60
A0
A0
C0
ENDCHAR

STARTCHAR h
ENCODING 104
SWIDTH 440 0
DWIDTH 4 0
BBX 4 7 0 0
BITMAP
30
40
40
60
90
A0
B0
ENDCHAR

STARTCHAR i
ENCODING 105
SWIDTH 240 0
DWIDTH 3 0
BBX 2 6 1 0
BITMAP
40
00
C0
40
80
C0
ENDCHAR

STARTCHAR j
ENCODING 106
SWIDTH 220 0
DWIDTH 2 0
BBX 4 9 -1 -3
BITMAP
10
00
30
10
10
20
20
20
C0
ENDCHAR

STARTCHAR k
ENCODING 107
SWIDTH 440 0
DWIDTH 4 0
BBX 6 9 0 -2
BITMAP
30
40
40
70
D0
A0
90
14
08
ENDCHAR

STARTCHAR l
ENCODING 108
SWIDTH 240 0
DWIDTH 3 0
BBX 4 7 1 0
BITMAP
30
40
40
40
80
80
C0
ENDCHAR

STARTCHAR m
ENCODING 109
SWIDTH 620 0
DWIDTH 7 0
BBX 6 4 1 0
BITMAP
F8
54
A8
AC
ENDCHAR

STARTCHAR n
ENCODING 110
SWIDTH 460 0
DWIDTH 5 0
BBX 4 4 1 0
BITMAP
E0
50
A0
B0
ENDCHAR

STARTCHAR o
ENCODING 111
SWIDTH 400 0
DWIDTH 4 0
BBX 4 4 0 0
BITMAP
60
90
90
60
ENDCHAR

STARTCHAR p
ENCODING 112
SWIDTH 440 0
DWIDTH 4 0
BBX 5 7 -1 -3
BITMAP
70
28
48
70
40
40
E0
ENDCHAR

STARTCHAR q
ENCODING 113
SWIDTH 400 0
DWIDTH 4 0
BBX 4 7 0 -3
BITMAP
70
90
A0
60
20
20
70
ENDCHAR

STARTCHAR r
ENCODING 114
SWIDTH 300 0
DWIDTH 3 0
BBX 4 4 0 0
BITMAP
B0
40
80
80
ENDCHAR

STARTCHAR s
ENCODING 115
SWIDTH 320 0
DWIDTH 3 0
BBX 4 4 0 0
BITMAP
30
40
20
C0
ENDCHAR

STARTCHAR t
ENCODING 116
SWIDTH 320 0
DWIDTH 3 0
BBX 3 5 0 0
BITMAP
40
E0
40
A0
C0
ENDCHAR

STARTCHAR u
ENCODING 117
SWIDTH 460 0
DWIDTH 5 0
BBX 4 4 1 0
BITMAP
D0
50
A0
70
ENDCHAR

STARTCHAR v
ENCODING 118
SWIDTH 440 0
DWIDTH 5 0
BBX 5 4 0 0
BITMAP
68
A8
50
60
ENDCHAR

STARTCHAR w
ENCODING 119
SWIDTH 680 0
DWIDTH 7 0
BBX 7 4 0 0
BITMAP
6A
AA
54
68
ENDCHAR

STARTCHAR x
ENCODING 120
SWIDTH 420 0
DWIDTH 4 0
BBX 5 6 0 -2
BITMAP
90
60
40
A0
28
10
ENDCHAR

STARTCHAR y
ENCODING 121
SWIDTH 400 0
DWIDTH 4 0
BBX 5 7 -1 -3
BITMAP
68
28
10
10
20
20
C0
ENDCHAR

STARTCHAR z
ENCODING 122
SWIDTH 440 0
DWIDTH 4 0
BBX 4 4 0 0
BITMAP
F0
20
40
F0
ENDCHAR

STARTCHAR braceleft
ENCODING 123
SWIDTH 240 0
DWIDTH 2 0
BBX 4 10 0 -3
BITMAP
10
20
40
40
80
40
80
80
80
40
ENDCHAR

STARTCHAR bar
ENCODING 124
SWIDTH 520 0
DWIDTH 5 0
BBX 1 10 2 -3
BITMAP
80
80
80
80
80
80
80
80
80
80
ENDCHAR

STARTCHAR braceright
ENCODING 125
SWIDTH 240 0
DWIDTH 2 0
BBX 4 10 0 -3
BITMAP
20
10
10
10
20
10
20
20
40
80
ENDCHAR

STARTCHAR asciitilde
ENCODING 126
SWIDTH 520 0
DWIDTH 5 0
BBX 5 2 0 2
BITMAP
68
B0
ENDCHAR

STARTCHAR space
ENCODING 160
SWIDTH 220 0
DWIDTH 3 0
BBX 0 0 0 0
BITMAP
ENDCHAR

STARTCHAR Aogonek
ENCODING 161
SWIDTH 620 0
DWIDTH 6 0
BBX 8 9 -1 -2
BITMAP
0E
12
06
0A
1C
14
26
24
C3
ENDCHAR

STARTCHAR breve
ENCODING 162
SWIDTH 440 0
DWIDTH 4 0
BBX 4 2 0 5
BITMAP
90
60
ENDCHAR

STARTCHAR Lslash
ENCODING 163
SWIDTH 580 0
DWIDTH 6 0
BBX 6 7 0 0
BITMAP
10
28
20
70
C0
44
F8
ENDCHAR

STARTCHAR currency
ENCODING 164
SWIDTH 600 0
DWIDTH 6 0
BBX 5 5 1 0
BITMAP
A8
50
88
50
A8
ENDCHAR

STARTCHAR Lcaron
ENCODING 165
SWIDTH 580 0
DWIDTH 7 0
BBX 8 7 0 0
BITMAP
19
25
22
20
40
44
F8
ENDCHAR

STARTCHAR Sacute
ENCODING 166
SWIDTH 460 0
DWIDTH 5 0
BBX 6 11 0 -1
BITMAP
04
08
00
18
24
20
10
08
08
88
70
ENDCHAR

STARTCHAR section
ENCODING 167
SWIDTH 420 0
DWIDTH 4 0
BBX 5 9 0 -2
BITMAP
18
20
20
50
50
50
50
20
C0
ENDCHAR

STARTCHAR dieresis
ENCODING 168
SWIDTH 360 0
DWIDTH 4 0
BBX 3 1 1 5
BITMAP
A0
ENDCHAR

STARTCHAR Scaron
ENCODING 169
SWIDTH 460 0
DWIDTH 5 0
BBX 6 11 0 -1
BITMAP
14
08
00
18
24
20
10
08
08
88
70
ENDCHAR

STARTCHAR Scommaaccent
ENCODING 170
SWIDTH 460 0
DWIDTH 5 0
BBX 6 10 0 -3
BITMAP
18
24
20
10
08
08
88
70
20
40
ENDCHAR

STARTCHAR Tcaron
ENCODING 171
SWIDTH 500 0
DWIDTH 5 0
BBX 6 10 0 0
BITMAP
28
10
00
7C
90
90
10
20
20
70
ENDCHAR

STARTCHAR Zacute
ENCODING 172
SWIDTH 620 0
DWIDTH 6 0
BBX 7 10 0 0
BITMAP
04
08
00
3E
44
08
10
20
44
F8
ENDCHAR

STARTCHAR hyphen
ENCODING 173
SWIDTH 280 0
DWIDTH 3 0
BBX 2 1 1 2
BITMAP
C0
ENDCHAR

STARTCHAR Zcaron
ENCODING 174
SWIDTH 620 0
DWIDTH 6 0
BBX 7 10 0 0
BITMAP
14
08
00
3E
44
08
10
20
44
F8
ENDCHAR

STARTCHAR Zdotaccent
ENCODING 175
SWIDTH 620 0
DWIDTH 6 0
BBX 7 9 0 0
BITMAP
08
00
3E
44
08
10
20
44
F8
ENDCHAR

STARTCHAR degree
ENCODING 176
SWIDTH 400 0
DWIDTH 4 0
BBX 4 4 0 3
BITMAP
60
90
90
60
ENDCHAR

STARTCHAR aogonek
ENCODING 177
SWIDTH 420 0
DWIDTH 4 0
BBX 5 6 0 -2
BITMAP
38
48
B0
D8
10
08
ENDCHAR

STARTCHAR ogonek
ENCODING 178
SWIDTH 280 0
DWIDTH 3 0
BBX 2 2 1 -2
BITMAP
80
40
ENDCHAR

STARTCHAR lslash
ENCODING 179
SWIDTH 300 0
DWIDTH 3 0
BBX 5 7 0 0
BITMAP
18
20
20
30
C0
40
60
ENDCHAR

STARTCHAR acute
ENCODING 180
SWIDTH 300 0
DWIDTH 3 0
BBX 2 2 1 4
BITMAP
40
80
ENDCHAR

STARTCHAR lcaron
ENCODING 181
SWIDTH 337 0
DWIDTH 5 0
BBX 6 7 1 0
BITMAP
34
44
48
40
80
80
C0
ENDCHAR

STARTCHAR sacute
ENCODING 182
SWIDTH 320 0
DWIDTH 3 0
BBX 4 7 0 0
BITMAP
10
20
00
30
40
20
C0
ENDCHAR

STARTCHAR caron
ENCODING 183
SWIDTH 340 0
DWIDTH 3 0
BBX 3 2 0 5
BITMAP
A0
40
ENDCHAR

STARTCHAR commaaccent
ENCODING 184
SWIDTH 333 0
DWIDTH 3 0
BBX 2 2 0 -3
BITMAP
40
80
ENDCHAR

STARTCHAR scaron
ENCODING 185
SWIDTH 320 0
DWIDTH 3 0
BBX 4 7 0 0
BITMAP
50
20
00
30
40
20
C0
ENDCHAR

STARTCHAR scommaaccent
ENCODING 186
SWIDTH 320 0
DWIDTH 3 0
BBX 4 7 0 -3
BITMAP
30
40
20
C0
00
40
80
ENDCHAR

STARTCHAR tcaron
ENCODING 187
SWIDTH 320 0
DWIDTH 4 0
BBX 5 6 0 0
BITMAP
08
48
F0
40
A0
C0
ENDCHAR

STARTCHAR zacute
ENCODING 188
SWIDTH 440 0
DWIDTH 4 0
BBX 4 7 0 0
BITMAP
10
20
00
F0
20
40
F0
ENDCHAR

STARTCHAR hungarumlaut
ENCODING 189
SWIDTH 400 0
DWIDTH 4 0
BBX 4 2 0 4
BITMAP
50
A0
ENDCHAR

STARTCHAR zcaron
ENCODING 190
SWIDTH 440 0
DWIDTH 4 0
BBX 4 7 0 0
BITMAP
50
20
00
F0
20
40
F0
ENDCHAR

STARTCHAR zdotaccent
ENCODING 191
SWIDTH 440 0
DWIDTH 4 0
BBX 4 6 0 0
BITMAP
20
00
F0
20
40
F0
ENDCHAR

STARTCHAR Racute
ENCODING 192
SWIDTH 600 0
DWIDTH 6 0
BBX 8 12 0 -2
BITMAP
08
10
00
78
84
A4
B8
48
48
E4
05
02
ENDCHAR

STARTCHAR Aacute
ENCODING 193
SWIDTH 620 0
DWIDTH 6 0
BBX 7 12 -1 -2
BITMAP
02
04
00
0E
12
06
0A
1C
14
26
20
C0
ENDCHAR

STARTCHAR Acircumflex
ENCODING 194
SWIDTH 620 0
DWIDTH 6 0
BBX 8 12 -1 -2
BITMAP
02
05
00
0E
12
06
0A
1C
14
26
20
C0
ENDCHAR

STARTCHAR Abreve
ENCODING 195
SWIDTH 620 0
DWIDTH 6 0
BBX 8 12 -1 -2
BITMAP
09
06
00
0E
12
06
0A
1C
14
26
20
C0
ENDCHAR

STARTCHAR Adieresis
ENCODING 196
SWIDTH 620 0
DWIDTH 6 0
BBX 8 11 -1 -2
BITMAP
09
00
0E
12
06
0A
1C
14
26
20
C0
ENDCHAR

STARTCHAR Lacute
ENCODING 197
SWIDTH 580 0
DWIDTH 6 0
BBX 6 10 0 0
BITMAP
04
08
00
18
24
20
20
40
44
F8
ENDCHAR

STARTCHAR Cacute
ENCODING 198
SWIDTH 520 0
DWIDTH 5 0
BBX 5 11 0 -1
BITMAP
08
10
00
38
48
40
80
80
80
90
60
ENDCHAR

STARTCHAR Ccedilla
ENCODING 199
SWIDTH 520 0
DWIDTH 5 0
BBX 5 10 0 -3
BITMAP
38
48
40
80
80
80
90
60
40
C0
ENDCHAR

STARTCHAR Ccaron
ENCODING 200
SWIDTH 520 0
DWIDTH 5 0
BBX 5 11 0 -1
BITMAP
28
10
00
38
48
40
80
80
80
90
60
ENDCHAR

STARTCHAR Eacute
ENCODING 201
SWIDTH 620 0
DWIDTH 6 0
BBX 6 10 0 0
BITMAP
04
08
00
7C
94
90
58
20
24
78
ENDCHAR

STARTCHAR Eogonek
ENCODING 202
SWIDTH 620 0
DWIDTH 6 0
BBX 7 9 0 -2
BITMAP
7C
94
90
58
20
24
78
08
06
ENDCHAR

STARTCHAR Edieresis
ENCODING 203
SWIDTH 620 0
DWIDTH 6 0
BBX 6 9 0 0
BITMAP
24
00
7C
94
90
58
20
24
78
ENDCHAR

STARTCHAR Ecaron
ENCODING 204
SWIDTH 620 0
DWIDTH 6 0
BBX 6 10 0 0
BITMAP
14
08
00
7C
94
90
58
20
24
78
ENDCHAR

STARTCHAR Iacute
ENCODING 205
SWIDTH 380 0
DWIDTH 4 0
BBX 4 10 0 0
BITMAP
10
20
00
70
20
20
20
40
40
E0
ENDCHAR

STARTCHAR Icircumflex
ENCODING 206
SWIDTH 380 0
DWIDTH 4 0
BBX 5 10 0 0
BITMAP
10
28
00
70
20
20
20
40
40
E0
ENDCHAR

STARTCHAR Dcaron
ENCODING 207
SWIDTH 700 0
DWIDTH 7 0
BBX 7 10 0 0
BITMAP
14
08
00
3C
42
52
92
A2
24
78
ENDCHAR

STARTCHAR Dcroat
ENCODING 208
SWIDTH 700 0
DWIDTH 7 0
BBX 7 7 0 0
BITMAP
3C
42
52
BA
A2
24
78
ENDCHAR

STARTCHAR Nacute
ENCODING 209
SWIDTH 700 0
DWIDTH 7 0
BBX 8 10 0 0
BITMAP
02
04
00
71
92
12
2A
2A
24
C4
ENDCHAR

STARTCHAR Ncaron
ENCODING 210
SWIDTH 700 0
DWIDTH 7 0
BBX 8 10 0 0
BITMAP
0A
04
00
71
92
92
2A
2A
24
C4
ENDCHAR

STARTCHAR Oacute
ENCODING 211
SWIDTH 600 0
DWIDTH 6 0
BBX 5 10 1 0
BITMAP
08
10
00
30
48
88
88
88
90
60
ENDCHAR

STARTCHAR Ocircumflex
ENCODING 212
SWIDTH 600 0
DWIDTH 6 0
BBX 5 10 1 0
BITMAP
10
28
00
30
48
88
88
88
90
60
ENDCHAR

STARTCHAR Ohungarumlaut
ENCODING 213
SWIDTH 600 0
DWIDTH 6 0
BBX 5 10 1 0
BITMAP
28
50
00
30
48
88
88
88
90
60
ENDCHAR

STARTCHAR Odieresis
ENCODING 214
SWIDTH 600 0
DWIDTH 6 0
BBX 5 9 1 0
BITMAP
28
00
30
48
88
88
88
90
60
ENDCHAR

STARTCHAR multiply
ENCODING 215
SWIDTH 520 0
DWIDTH 5 0
BBX 3 4 1 1
BITMAP
A0
40
40
A0
ENDCHAR

STARTCHAR Rcaron
ENCODING 216
SWIDTH 600 0
DWIDTH 6 0
BBX 8 12 0 -2
BITMAP
28
10
00
78
84
A4
B8
48
48
E4
05
02
ENDCHAR

STARTCHAR Uring
ENCODING 217
SWIDTH 740 0
DWIDTH 7 0
BBX 7 10 0 0
BITMAP
0C
12
0C
62
A2
A2
44
44
48
30
ENDCHAR

STARTCHAR Uacute
ENCODING 218
SWIDTH 740 0
DWIDTH 7 0
BBX 7 10 0 0
BITMAP
04
08
00
62
A2
A2
44
44
48
30
ENDCHAR

STARTCHAR Uhungarumlaut
ENCODING 219
SWIDTH 740 0
DWIDTH 7 0
BBX 7 10 0 0
BITMAP
0A
14
00
62
A2
A2
44
44
48
30
ENDCHAR

STARTCHAR Udieresis
ENCODING 220
SWIDTH 740 0
DWIDTH 7 0
BBX 7 9 0 0
BITMAP
12
00
62
A2
A2
44
44
48
30
ENDCHAR

STARTCHAR Yacute
ENCODING 221
SWIDTH 560 0
DWIDTH 6 0
BBX 7 10 0 0
BITMAP
04
08
00
62
94
98
10
20
20
70
ENDCHAR

STARTCHAR Tcommaaccent
ENCODING 222
SWIDTH 500 0
DWIDTH 5 0
BBX 7 10 0 -3
BITMAP
7E
90
90
10
20
20
70
00
20
40
ENDCHAR

STARTCHAR germandbls
ENCODING 223
SWIDTH 420 0
DWIDTH 4 0
BBX 7 10 -1 -2
BITMAP
0C
12
12
14
28
24
24
28
20
C0
ENDCHAR

STARTCHAR racute
ENCODING 224
SWIDTH 300 0
DWIDTH 3 0
BBX 4 7 0 0
BITMAP
20
40
00
B0
40
80
80
ENDCHAR

STARTCHAR aacute
ENCODING 225
SWIDTH 420 0
DWIDTH 4 0
BBX 5 7 0 0
BITMAP
08
10
00
38
48
B0
D8
ENDCHAR

STARTCHAR acircumflex
ENCODING 226
SWIDTH 420 0
DWIDTH 4 0
BBX 5 7 0 0
BITMAP
10
28
00
38
48
B0
D8
ENDCHAR

STARTCHAR abreve
ENCODING 227
SWIDTH 420 0
DWIDTH 4 0
BBX 5 7 0 0
BITMAP
48
30
00
38
48
B0
D8
ENDCHAR

STARTCHAR adieresis
ENCODING 228
SWIDTH 420 0
DWIDTH 4 0
BBX 5 6 0 0
BITMAP
28
00
38
48
B0
D8
ENDCHAR

STARTCHAR lacute
ENCODING 229
SWIDTH 240 0
DWIDTH 3 0
BBX 4 10 1 0
BITMAP
10
20
00
30
40
40
40
80
80
C0
ENDCHAR

STARTCHAR cacute
ENCODING 230
SWIDTH 340 0
DWIDTH 3 0
BBX 3 7 0 0
BITMAP
20
40
00
60
80
80
C0
ENDCHAR

STARTCHAR ccedilla
ENCODING 231
SWIDTH 340 0
DWIDTH 3 0
BBX 3 6 0 -2
BITMAP
60
80
80
C0
40
C0
ENDCHAR

STARTCHAR ccaron
ENCODING 232
SWIDTH 340 0
DWIDTH 3 0
BBX 4 7 0 0
BITMAP
50
20
00
60
80
80
C0
ENDCHAR

STARTCHAR eacute
ENCODING 233
SWIDTH 340 0
DWIDTH 3 0
BBX 3 7 0 0
BITMAP
20
40
00
60
A0
C0
60
ENDCHAR

STARTCHAR eogonek
ENCODING 234
SWIDTH 340 0
DWIDTH 3 0
BBX 3 6 0 -2
BITMAP
60
A0
C0
60
40
60
ENDCHAR

STARTCHAR edieresis
ENCODING 235
SWIDTH 340 0
DWIDTH 3 0
BBX 4 6 0 0
BITMAP
50
00
60
A0
C0
60
ENDCHAR

STARTCHAR ecaron
ENCODING 236
SWIDTH 340 0
DWIDTH 3 0
BBX 4 7 0 0
BITMAP
50
20
00
60
A0
C0
60
ENDCHAR

STARTCHAR iacute
ENCODING 237
SWIDTH 240 0
DWIDTH 3 0
BBX 3 7 1 0
BITMAP
20
40
00
C0
40
80
C0
ENDCHAR

STARTCHAR icircumflex
ENCODING 238
SWIDTH 240 0
DWIDTH 3 0
BBX 3 7 1 0
BITMAP
40
A0
00
40
40
80
C0
ENDCHAR

STARTCHAR dcaron
ENCODING 239
SWIDTH 483 0
DWIDTH 5 0
BBX 7 7 0 0
BITMAP
0A
12
14
70
90
90
68
ENDCHAR

STARTCHAR dcroat
ENCODING 240
SWIDTH 440 0
DWIDTH 4 0
BBX 6 8 0 0
BITMAP
0C
10
7C
10
70
90
90
68
ENDCHAR

STARTCHAR nacute
ENCODING 241
SWIDTH 460 0
DWIDTH 5 0
BBX 4 7 1 0
BITMAP
10
20
00
E0
50
A0
B0
ENDCHAR

STARTCHAR ncaron
ENCODING 242
SWIDTH 460 0
DWIDTH 5 0
BBX 4 7 1 0
BITMAP
50
20
00
E0
50
A0
B0
ENDCHAR

STARTCHAR oacute
ENCODING 243
SWIDTH 400 0
DWIDTH 4 0
BBX 4 7 0 0
BITMAP
20
40
00
60
90
90
60
ENDCHAR

STARTCHAR ocircumflex
ENCODING 244
SWIDTH 400 0
DWIDTH 4 0
BBX 4 7 0 0
BITMAP
20
50
00
60
90
90
60
ENDCHAR

STARTCHAR ohungarumlaut
ENCODING 245
SWIDTH 400 0
DWIDTH 4 0
BBX 4 7 0 0
BITMAP
50
A0
00
60
90
90
60
ENDCHAR

STARTCHAR odieresis
ENCODING 246
SWIDTH 400 0
DWIDTH 4 0
BBX 4 6 0 0
BITMAP
50
00
60
90
90
60
ENDCHAR

STARTCHAR divide
ENCODING 247
SWIDTH 520 0
DWIDTH 5 0
BBX 5 5 0 1
BITMAP
20
00
F8
00
20
ENDCHAR

STARTCHAR rcaron
ENCODING 248
SWIDTH 300 0
DWIDTH 3 0
BBX 4 7 0 0
BITMAP
A0
40
00
B0
40
80
80
ENDCHAR

STARTCHAR uring
ENCODING 249
SWIDTH 460 0
DWIDTH 5 0
BBX 4 8 1 0
BITMAP
20
50
50
20
D0
50
A0
70
ENDCHAR

STARTCHAR uacute
ENCODING 250
SWIDTH 460 0
DWIDTH 5 0
BBX 4 7 1 0
BITMAP
10
20
00
D0
50
A0
70
ENDCHAR

STARTCHAR uhungarumlaut
ENCODING 251
SWIDTH 460 0
DWIDTH 5 0
BBX 5 7 1 0
BITMAP
28
50
00
D0
50
A0
70
ENDCHAR

STARTCHAR udieresis
ENCODING 252
SWIDTH 460 0
DWIDTH 5 0
BBX 4 6 1 0
BITMAP
50
00
D0
50
A0
70
ENDCHAR

STARTCHAR yacute
ENCODING 253
SWIDTH 400 0
DWIDTH 4 0
BBX 5 10 -1 -3
BITMAP
08
10
00
68
28
10
10
20
20
C0
ENDCHAR

STARTCHAR tcommaaccent
ENCODING 254
SWIDTH 320 0
DWIDTH 3 0
BBX 3 8 0 -3
BITMAP
40
E0
40
A0
C0
00
40
80
ENDCHAR

STARTCHAR dotaccent
ENCODING 255
SWIDTH 220 0
DWIDTH 2 0
BBX 1 1 1 5
BITMAP
80
ENDCHAR
ENDFONT
